# This file uses centimeters as units for non-parametric coordinates.

mtllib projectile_soap.mtl
g default
v -0.811201 -0.182148 0.450944
v -0.304245 -0.182829 0.503123
v 0.295755 -0.182829 0.503123
v 0.802711 -0.182148 0.450944
v -0.811201 0.178943 0.450944
v -0.304245 0.179624 0.503123
v 0.295755 0.179624 0.503123
v 0.802711 0.178943 0.450944
v -0.904245 0.179624 0.166644
v 0.895755 0.179624 0.166644
v -0.904245 0.179624 -0.169835
v 0.895755 0.179624 -0.169835
v -0.811201 0.178943 -0.454135
v -0.304245 0.179624 -0.506314
v 0.295755 0.179624 -0.506314
v 0.802711 0.178943 -0.454135
v -0.811201 -0.182148 -0.454135
v -0.304245 -0.182829 -0.506314
v 0.295755 -0.182829 -0.506314
v 0.802711 -0.182148 -0.454135
v -0.904245 -0.182829 -0.169835
v 0.895755 -0.182829 -0.169835
v -0.904245 -0.182829 0.166644
v 0.895755 -0.182829 0.166644
v 0.895755 -0.182829 -0.338074
v 0.595755 -0.182829 -0.506314
v 0.595755 0.179624 -0.506314
v 0.895755 0.179624 -0.338074
v -0.604245 -0.182829 -0.506314
v -0.904245 -0.182829 -0.338074
v -0.904245 0.179624 -0.338074
v -0.604245 0.179624 -0.506314
v 0.595755 -0.182829 0.503123
v 0.895755 -0.182829 0.334883
v 0.895755 0.179624 0.334883
v 0.595755 0.179624 0.503123
v -0.904245 -0.182829 0.334883
v -0.604245 -0.182829 0.503123
v -0.604245 0.179624 0.503123
v -0.904245 0.179624 0.334883
v 0.592050 0.163611 0.332805
v -0.600540 0.163611 0.332805
v 0.592050 0.163611 -0.335997
v -0.600540 0.163611 -0.335997
v -0.600540 -0.166816 -0.335996
v 0.592050 -0.166816 -0.335996
v -0.600540 -0.166816 0.332805
v 0.592050 -0.166816 0.332805
v 0.679755 0.179624 -0.169835
v -0.688245 0.179624 -0.169835
v -0.688245 -0.182829 -0.169835
v 0.679755 -0.182829 -0.169835
v 0.679755 0.179624 0.166644
v -0.688245 0.179624 0.166644
v -0.688245 -0.182829 0.166644
v 0.679755 -0.182829 0.166644
v -0.304245 0.179624 0.381990
v -0.304245 0.179624 -0.385181
v -0.304245 -0.182829 -0.385181
v -0.304245 -0.182829 0.381990
v 0.295755 -0.182829 -0.385181
v 0.295755 -0.182829 0.381990
v 0.295755 0.179624 0.381990
v 0.295755 0.179624 -0.385181
v -0.304245 0.147827 0.381990
v -0.304245 0.147827 0.166644
v -0.688245 0.147827 0.166644
v -0.304245 0.147827 -0.169835
v -0.304245 0.147827 -0.385181
v -0.688245 0.147827 -0.169835
v 0.295755 0.147827 0.381990
v 0.295755 0.147827 0.166644
v 0.295755 0.147827 -0.169835
v 0.295755 0.147827 -0.385181
v 0.679755 0.147827 0.166644
v 0.679755 0.147827 -0.169835
v -0.600540 0.134623 -0.335997
v -0.600540 0.134623 0.332805
v 0.592050 0.134623 0.332805
v 0.592050 0.134623 -0.335997
v -0.304245 -0.151032 0.166644
v -0.304245 -0.151032 0.381990
v -0.688245 -0.151032 0.166644
v -0.304245 -0.151032 -0.385181
v -0.304245 -0.151032 -0.169835
v -0.688245 -0.151032 -0.169835
v 0.295755 -0.151032 -0.385181
v 0.295755 -0.151032 -0.169835
v 0.295755 -0.151032 0.166644
v 0.295755 -0.151032 0.381990
v 0.679755 -0.151032 -0.169835
v 0.679755 -0.151032 0.166644
v 0.592050 -0.137829 0.332805
v -0.600540 -0.137829 0.332805
v -0.600540 -0.137829 -0.335996
v 0.592050 -0.137828 -0.335996
vt 0.675095 0.581570
vt 0.675095 0.514012
vt 0.701706 0.514139
vt 0.701706 0.581443
vt 0.641933 0.581570
vt 0.641933 0.514012
vt 0.575607 0.581570
vt 0.575607 0.514012
vt 0.542445 0.581570
vt 0.542445 0.514012
vt 0.506638 0.514139
vt 0.506638 0.581443
vt 0.038123 0.514139
vt 0.063206 0.514012
vt 0.063206 0.581570
vt 0.038123 0.581443
vt 0.102378 0.514012
vt 0.102378 0.581570
vt 0.168703 0.581570
vt 0.168703 0.514012
vt 0.201866 0.514012
vt 0.201866 0.581570
vt 0.226949 0.514139
vt 0.226949 0.581443
vt 0.917881 0.453373
vt 0.799885 0.453373
vt 0.799866 0.427549
vt 0.917861 0.427549
vt 0.739107 0.453373
vt 0.739089 0.427549
vt 0.978639 0.453373
vt 0.978622 0.427549
vt 0.438816 0.453373
vt 0.320820 0.453373
vt 0.320801 0.427549
vt 0.438796 0.427549
vt 0.260042 0.453373
vt 0.260024 0.427549
vt 0.499574 0.453373
vt 0.499557 0.427549
vt 0.798333 0.425993
vt 0.915543 0.425993
vt 0.915509 0.452179
vt 0.798299 0.452179
vt 0.024142 0.425993
vt 0.024111 0.452179
vt 0.737952 0.425993
vt 0.737921 0.452179
vt 0.322460 0.425993
vt 0.439669 0.425993
vt 0.439635 0.452179
vt 0.322425 0.452179
vt 0.500016 0.425993
vt 0.499984 0.452179
vt 0.262079 0.425993
vt 0.262048 0.452179
vt 0.524513 0.659570
vt 0.579633 0.644810
vt 0.499732 0.692401
vt 0.580620 0.692989
vt 0.659535 0.644810
vt 0.659535 0.679075
vt 0.557261 0.739992
vt 0.499732 0.739992
vt 0.819338 0.644810
vt 0.819338 0.679075
vt 0.557261 0.835175
vt 0.499732 0.835175
vt 0.898253 0.692989
vt 0.899240 0.644810
vt 0.580620 0.882178
vt 0.499732 0.882766
vt 0.979141 0.692401
vt 0.579633 0.930358
vt 0.979141 0.739992
vt 0.921612 0.739992
vt 0.954360 0.659570
vt 0.659535 0.896092
vt 0.659535 0.930358
vt 0.524513 0.915597
vt 0.979141 0.835175
vt 0.921612 0.835175
vt 0.819338 0.930358
vt 0.819338 0.896092
vt 0.979141 0.882766
vt 0.898253 0.882178
vt 0.899240 0.930358
vt 0.954360 0.915597
vt 0.524092 0.660368
vt 0.579212 0.645607
vt 0.499311 0.693199
vt 0.580199 0.693786
vt 0.659114 0.645607
vt 0.659114 0.679873
vt 0.556840 0.740790
vt 0.499311 0.740790
vt 0.818917 0.645607
vt 0.818917 0.679873
vt 0.556840 0.835973
vt 0.499311 0.835973
vt 0.897832 0.693786
vt 0.898819 0.645607
vt 0.580199 0.882976
vt 0.499311 0.883564
vt 0.978720 0.693199
vt 0.579212 0.931155
vt 0.978720 0.740790
vt 0.921191 0.740790
vt 0.953939 0.660368
vt 0.659114 0.896890
vt 0.659114 0.931155
vt 0.524092 0.916395
vt 0.978720 0.835973
vt 0.921191 0.835973
vt 0.818917 0.931155
vt 0.818917 0.896890
vt 0.978720 0.883564
vt 0.897832 0.882976
vt 0.898819 0.931155
vt 0.953939 0.916395
vt 0.333575 0.908200
vt 0.333575 0.849367
vt 0.438367 0.849367
vt 0.169836 0.908200
vt 0.169836 0.849367
vt 0.333575 0.757442
vt 0.438367 0.757441
vt 0.414433 0.894763
vt 0.072364 0.849367
vt 0.169836 0.757442
vt 0.333575 0.698609
vt 0.072364 0.757442
vt 0.096298 0.894763
vt 0.169836 0.698609
vt 0.414433 0.712046
vt 0.096298 0.712046
vt 0.332842 0.756668
vt 0.332842 0.697835
vt 0.437635 0.756668
vt 0.169104 0.756668
vt 0.169104 0.697835
vt 0.413700 0.711272
vt 0.332842 0.848593
vt 0.437635 0.848594
vt 0.071631 0.756668
vt 0.332842 0.907426
vt 0.095566 0.711272
vt 0.169104 0.848593
vt 0.071631 0.848594
vt 0.169104 0.907426
vt 0.413700 0.893989
vt 0.095566 0.893989
vt 0.260346 0.514012
vt 0.260346 0.581570
vt 0.311061 0.514012
vt 0.311061 0.581570
vt 0.413414 0.581570
vt 0.413414 0.514012
vt 0.464129 0.514012
vt 0.464129 0.581570
vt 0.970878 0.581443
vt 0.932039 0.581570
vt 0.932039 0.514012
vt 0.970878 0.514139
vt 0.879772 0.581570
vt 0.879772 0.514012
vt 0.782878 0.514012
vt 0.782878 0.581570
vt 0.735960 0.581570
vt 0.735960 0.514012
vt 0.678348 0.453373
vt 0.560352 0.453373
vt 0.560333 0.427549
vt 0.678329 0.427549
vt 0.199283 0.453373
vt 0.081288 0.453373
vt 0.081268 0.427549
vt 0.199264 0.427549
vt 0.020509 0.453373
vt 0.020492 0.427549
vt 0.084523 0.425993
vt 0.201733 0.425993
vt 0.201698 0.452179
vt 0.084489 0.452179
vt 0.560396 0.425993
vt 0.677606 0.425993
vt 0.677572 0.452179
vt 0.560362 0.452179
vt 0.975889 0.426238
vt 0.975858 0.452179
vn -0.244475 0.000000 0.969656
vn -0.102150 0.000000 0.994769
vn -0.102150 0.000000 0.994769
vn -0.244475 0.000000 0.969656
vn 0.102150 0.000000 0.994769
vn 0.102150 0.000000 0.994769
vn 0.244475 0.000000 0.969656
vn 0.244475 0.000000 0.969656
vn -0.005979 0.999925 0.010661
vn -0.000588 0.997939 -0.064169
vn 0.032690 0.999312 0.017533
vn -0.032690 0.999312 0.017533
vn 0.000588 0.997939 -0.064169
vn 0.005979 0.999925 0.010661
vn 0.032690 0.999312 -0.017533
vn -0.000588 0.997939 0.064169
vn -0.005979 0.999925 -0.010661
vn 0.000588 0.997939 0.064169
vn -0.032690 0.999312 -0.017533
vn 0.005979 0.999925 -0.010661
vn -0.244475 0.000000 -0.969656
vn -0.102151 0.000000 -0.994769
vn -0.102151 0.000000 -0.994769
vn -0.244475 0.000000 -0.969656
vn 0.102151 0.000000 -0.994769
vn 0.102151 0.000000 -0.994769
vn 0.244475 0.000000 -0.969656
vn 0.244475 0.000000 -0.969656
vn -0.005979 -0.999925 -0.010661
vn -0.000588 -0.997939 0.064168
vn 0.032689 -0.999312 -0.017533
vn -0.032690 -0.999312 -0.017533
vn 0.000588 -0.997939 0.064169
vn 0.005978 -0.999925 -0.010661
vn 0.032689 -0.999312 0.017533
vn -0.000588 -0.997939 -0.064169
vn -0.005978 -0.999925 0.010661
vn 0.000588 -0.997939 -0.064168
vn -0.032689 -0.999312 0.017533
vn 0.005978 -0.999925 0.010661
vn 0.950657 0.000000 -0.310243
vn 0.950657 0.000000 -0.310243
vn 0.780227 0.000000 -0.625497
vn 0.780227 0.000000 -0.625497
vn 0.780227 0.000000 0.625497
vn 0.950657 0.000000 0.310243
vn 0.950657 0.000000 0.310243
vn 0.780227 0.000000 0.625497
vn -0.780227 0.000000 -0.625497
vn -0.950657 0.000000 -0.310243
vn -0.950657 0.000000 -0.310243
vn -0.780227 0.000000 -0.625497
vn -1.000000 -0.000000 0.000000
vn -1.000000 -0.000000 0.000000
vn -0.950657 0.000000 0.310243
vn -0.950657 0.000000 0.310243
vn 0.014464 0.999281 -0.035050
vn 0.000000 0.000000 -1.000000
vn 0.000000 0.000000 -1.000000
vn 1.000000 -0.000000 0.000000
vn 1.000000 -0.000000 0.000000
vn 0.014464 -0.999281 -0.035050
vn 0.000000 0.000000 1.000000
vn 0.000000 0.000000 1.000000
vn -0.780227 0.000000 0.625497
vn -0.780227 0.000000 0.625497
vn -0.014464 0.999281 -0.035050
vn -0.014464 -0.999281 -0.035050
vn -0.008872 -0.999719 -0.021971
vn -0.008346 -0.999752 -0.020671
vn -0.008346 0.999752 -0.020671
vn -0.008872 0.999719 -0.021972
vn -0.011593 0.999822 0.014884
vn -0.013595 0.999755 0.017454
vn -0.001950 0.999992 0.003477
vn 0.000000 1.000000 -0.000000
vn -0.003465 0.999975 0.006179
vn 0.013595 0.999755 0.017454
vn 0.011593 0.999822 0.014884
vn -0.014464 0.999281 0.035050
vn -0.008872 0.999719 0.021972
vn -0.008346 0.999752 0.020671
vn 0.014464 0.999281 0.035050
vn 0.014464 -0.999281 0.035050
vn -0.008346 -0.999752 0.020671
vn -0.008872 -0.999719 0.021971
vn -0.014464 -0.999281 0.035050
vn 0.011593 -0.999822 0.014884
vn 0.013595 -0.999755 0.017454
vn -0.000000 -1.000000 -0.000000
vn -0.001950 -0.999992 0.003477
vn -0.003465 -0.999975 0.006179
vn -0.013595 -0.999755 0.017454
vn -0.011593 -0.999822 0.014884
vn 1.000000 0.000000 0.000000
vn 1.000000 0.000000 0.000000
vn -0.013595 0.999755 -0.017454
vn -0.011593 0.999822 -0.014884
vn 0.000000 1.000000 0.000000
vn -0.001950 0.999992 -0.003477
vn -0.003465 0.999975 -0.006179
vn 0.011593 0.999822 -0.014884
vn 0.013595 0.999755 -0.017454
vn -1.000000 -0.000000 0.000000
vn -1.000000 -0.000000 0.000000
vn 0.013595 -0.999755 -0.017454
vn 0.011593 -0.999822 -0.014884
vn -0.001950 -0.999992 -0.003477
vn -0.000000 -1.000000 0.000000
vn -0.003465 -0.999975 -0.006179
vn -0.011593 -0.999822 -0.014884
vn -0.013595 -0.999755 -0.017454
vn 0.000000 0.000000 1.000000
vn 0.000000 0.000000 1.000000
vn 0.008346 0.999752 -0.020671
vn 0.008872 0.999719 -0.021972
vn 0.001950 0.999992 0.003477
vn 0.000000 1.000000 -0.000000
vn 0.000000 1.000000 0.000000
vn 0.001950 0.999992 -0.003477
vn 0.008346 0.999752 0.020671
vn 0.008872 0.999719 0.021972
vn 0.000000 0.000000 -1.000000
vn 0.000000 0.000000 -1.000000
vn 0.008346 -0.999752 0.020671
vn 0.008872 -0.999719 0.021972
vn 0.001950 -0.999992 -0.003477
vn -0.000000 -1.000000 0.000000
vn -0.000000 -1.000000 -0.000000
vn 0.001950 -0.999992 0.003477
vn 0.008346 -0.999752 -0.020671
vn 0.008872 -0.999719 -0.021971
vn 0.003465 -0.999975 -0.006179
vn 0.003465 -0.999975 0.006179
vn 0.062776 -0.991730 0.111940
vn 0.003465 0.999975 0.006179
vn 0.003465 0.999975 -0.006179
vn -0.062775 -0.991730 0.111939
vn -0.062775 -0.991730 -0.111939
vn 0.062777 -0.991730 -0.111942
vn -0.062777 0.991730 -0.111941
vn -0.062777 0.991730 0.111941
vn 0.062777 0.991730 0.111941
vn 0.062777 0.991730 -0.111941
vn 1.000000 0.000000 0.000000
vn 1.000000 0.000000 0.000000
vn 1.000000 0.000000 0.000000
vn 1.000000 0.000000 0.000000
vn 0.000000 0.000000 -1.000000
vn 0.000000 0.000000 -1.000000
vn 0.000000 0.000000 -1.000000
vn 0.000000 0.000000 -1.000000
vn -0.000000 0.000000 1.000000
vn -0.000000 0.000000 1.000000
vn -0.000000 0.000000 1.000000
vn -0.000000 0.000000 1.000000
vn -1.000000 0.000000 0.000000
vn -1.000000 0.000000 0.000000
vn -1.000000 0.000000 0.000000
vn -1.000000 0.000000 0.000000
vn 0.163759 0.000000 0.986501
vn 0.163759 0.000000 0.986500
vn 0.163759 0.000000 0.986501
vn 0.163759 0.000000 0.986500
vn 0.884365 0.000000 0.466795
vn 0.884365 0.000000 0.466795
vn 0.884365 0.000000 0.466795
vn 0.884365 0.000000 0.466795
vn 0.884365 0.000000 -0.466795
vn 0.884365 0.000000 -0.466796
vn 0.884365 0.000000 -0.466795
vn 0.884365 0.000000 -0.466795
vn 0.163759 0.000000 -0.986500
vn 0.163759 0.000000 -0.986501
vn 0.163759 0.000000 -0.986500
vn 0.163759 0.000000 -0.986501
vn -0.163759 0.000000 -0.986500
vn -0.163759 0.000000 -0.986500
vn -0.163759 0.000000 -0.986500
vn -0.163759 0.000000 -0.986500
vn -0.884365 0.000000 -0.466795
vn -0.884365 0.000000 -0.466795
vn -0.884365 0.000000 -0.466795
vn -0.884365 0.000000 -0.466795
vn -0.163759 0.000000 0.986501
vn -0.163759 0.000000 0.986500
vn -0.163759 0.000000 0.986501
vn -0.163759 0.000000 0.986500
vn -0.884366 0.000000 0.466795
vn -0.884366 0.000000 0.466795
vn -0.884366 0.000000 0.466795
vn -0.884366 0.000000 0.466795
vn 1.000000 0.000000 0.000000
vn 1.000000 0.000000 0.000000
vn 1.000000 0.000000 0.000000
vn 1.000000 0.000000 0.000000
vn 0.000000 0.000000 1.000000
vn 0.000000 0.000000 1.000000
vn 0.000000 0.000000 1.000000
vn 0.000000 0.000000 1.000000
vn 0.000000 0.000000 -1.000000
vn 0.000000 0.000000 -1.000000
vn 0.000000 0.000000 -1.000000
vn 0.000000 0.000000 -1.000000
vn -1.000000 0.000000 0.000000
vn -1.000000 0.000000 0.000000
vn -1.000000 0.000000 0.000000
vn -1.000000 0.000000 0.000000
vn -0.163759 0.000000 -0.986500
vn -0.163759 0.000000 -0.986500
vn -0.163759 0.000000 -0.986500
vn -0.163759 0.000000 -0.986500
vn -0.884365 0.000000 -0.466796
vn -0.884365 0.000000 -0.466796
vn -0.884365 0.000000 -0.466796
vn -0.884365 0.000000 -0.466796
vn 0.163759 0.000000 -0.986501
vn 0.163759 0.000000 -0.986500
vn 0.163759 0.000000 -0.986500
vn 0.163759 0.000000 -0.986501
vn 0.884365 0.000000 -0.466796
vn 0.884365 0.000000 -0.466796
vn 0.884365 0.000000 -0.466796
vn 0.884365 0.000000 -0.466796
vn 0.884365 0.000000 0.466796
vn 0.884365 0.000000 0.466796
vn 0.884365 0.000000 0.466795
vn 0.884365 0.000000 0.466795
vn 0.163759 0.000000 0.986500
vn 0.163759 0.000000 0.986501
vn 0.163759 0.000000 0.986500
vn 0.163759 0.000000 0.986501
vn -0.163759 0.000000 0.986500
vn -0.163759 0.000000 0.986501
vn -0.163759 0.000000 0.986500
vn -0.163759 0.000000 0.986500
vn -0.884365 0.000000 0.466795
vn -0.884365 0.000000 0.466795
vn -0.884365 0.000000 0.466795
vn -0.884365 0.000000 0.466795
vn -0.000000 -1.000000 -0.000000
vn -0.000000 -1.000000 -0.000000
vn -0.000000 -1.000000 -0.000000
vn -0.000000 -1.000000 -0.000000
s 1
g soap
usemtl lambert4SG
f 1/23/1 38/153/2 39/154/3 5/24/4
f 36/160/5 33/159/6 4/11/7 8/12/8
s 3
f 5/57/9 39/58/10 40/59/11
f 35/73/12 36/70/13 8/77/14
f 31/72/15 32/74/16 13/80/17
f 27/87/18 28/85/19 16/88/20
s 7
f 13/161/21 32/162/22 29/163/23 17/164/24
f 26/170/25 27/169/26 16/4/27 20/3/28
s 9
f 17/89/29 29/90/30 30/91/31
f 25/105/32 26/102/33 20/109/34
f 37/104/35 38/106/36 1/112/37
f 33/119/38 34/117/39 4/120/40
s 13
f 28/1/41 25/2/42 20/3/43 16/4/44
f 4/11/45 34/10/46 35/9/47 8/12/48
s 15
f 17/13/49 30/14/50 31/15/51 13/16/52
f 9/19/53 23/20/54 37/21/55 40/22/56
s 3
f 39/58/10 42/60/57 40/59/11
s 7
f 14/165/58 18/166/59 29/163/23 32/162/22
s 13
f 10/7/60 35/9/47 34/10/46 24/8/61
s 9
f 37/104/35 47/103/62 38/106/36
s 1
f 2/155/63 6/156/64 39/154/3 38/153/2
s 15
f 40/22/56 37/21/55 1/23/65 5/24/66
s 3
f 35/73/12 41/69/67 36/70/13
s 9
f 33/119/38 48/118/68 34/117/39
f 60/110/69 2/111/70 38/106/36 47/103/62
s 3
f 6/61/71 57/62/72 42/60/57 39/58/10
f 10/75/73 53/76/74 41/69/67 35/73/12
s 17
f 65/121/75 66/122/76 67/123/77
s 3
f 40/59/11 42/60/57 54/63/78 9/64/79
f 27/87/18 43/86/80 28/85/19
f 58/78/81 14/79/82 32/74/16 44/71/83
f 31/72/15 44/71/83 32/74/16
s 9
f 29/90/30 45/92/84 30/91/31
f 18/93/85 59/94/86 45/92/84 29/90/30
f 25/105/32 46/101/87 26/102/33
f 23/100/88 55/99/89 47/103/62 37/104/35
s 19
f 81/137/90 82/138/91 83/139/92
s 9
f 34/117/39 48/118/68 56/114/93 24/113/94
s 13
f 12/5/95 22/6/96 25/2/42 28/1/41
s 3
f 28/85/19 43/86/80 49/82/97 12/81/98
s 17
f 68/126/99 69/131/100 70/127/101
s 3
f 11/68/102 50/67/103 44/71/83 31/72/15
s 15
f 21/17/104 11/18/105 31/15/51 30/14/50
s 9
f 30/91/31 45/92/84 51/95/106 21/96/107
s 19
f 84/146/108 85/143/109 86/144/110
s 9
f 22/107/111 52/108/112 46/101/87 25/105/32
s 13
f 10/7/60 24/8/61 22/6/96 12/5/95
s 3
f 12/81/98 49/82/97 53/76/74 10/75/73
s 17
f 66/122/76 68/126/99 70/127/101 67/123/77
s 3
f 9/64/79 54/63/78 50/67/103 11/68/102
s 15
f 9/19/53 11/18/105 21/17/104 23/20/54
s 9
f 21/96/107 51/95/106 55/99/89 23/100/88
s 19
f 85/143/109 81/137/90 83/139/92 86/144/110
s 9
f 24/113/94 56/114/93 52/108/112 22/107/111
s 1
f 7/157/113 6/156/64 2/155/63 3/158/114
s 3
f 7/65/115 63/66/116 57/62/72 6/61/71
s 17
f 71/124/117 72/125/118 66/122/76 65/121/75
f 72/125/118 73/130/119 68/126/99 66/122/76
f 73/130/119 74/134/120 69/131/100 68/126/99
s 3
f 15/83/121 14/79/82 58/78/81 64/84/122
s 7
f 19/167/123 18/166/59 14/165/58 15/168/124
s 9
f 19/97/125 61/98/126 59/94/86 18/93/85
s 19
f 87/150/127 88/148/128 85/143/109 84/146/108
f 89/140/129 90/141/130 82/138/91 81/137/90
s 9
f 3/115/131 2/111/70 60/110/69 62/116/132
f 46/101/87 61/98/126 19/97/125 26/102/33
s 19
f 91/149/133 88/148/128 87/150/127
f 92/145/134 89/140/129 88/148/128 91/149/133
f 93/147/135 90/141/130 92/145/134
s 9
f 3/115/131 62/116/132 48/118/68 33/119/38
s 1
f 7/157/113 3/158/114 33/159/6 36/160/5
s 3
f 41/69/67 63/66/116 7/65/115 36/70/13
s 17
f 75/129/136 72/125/118 71/124/117
f 76/132/137 73/130/119 72/125/118 75/129/136
f 76/132/137 74/134/120 73/130/119
s 3
f 15/83/121 64/84/122 43/86/80 27/87/18
s 7
f 19/167/123 15/168/124 27/169/26 26/170/25
s 19
f 83/139/92 82/138/91 94/142/138
f 92/145/134 90/141/130 89/140/129
f 84/146/108 86/144/110 95/151/139
f 91/149/133 87/150/127 96/152/140
s 17
f 70/127/101 69/131/100 77/135/141
f 65/121/75 67/123/77 78/128/142
f 75/129/136 71/124/117 79/133/143
f 80/136/144 74/134/120 76/132/137
s off
f 50/25/145 54/26/146 67/27/147 70/28/148
f 57/171/149 63/172/150 71/173/151 65/174/152
f 64/175/153 58/176/154 69/177/155 74/178/156
f 53/33/157 49/34/158 76/35/159 75/36/160
f 58/176/161 44/179/162 77/180/163 69/177/164
f 44/31/165 50/25/166 70/28/167 77/32/168
f 54/26/169 42/29/170 78/30/171 67/27/172
f 42/29/173 57/171/174 65/174/175 78/30/176
f 63/172/177 41/39/178 79/40/179 71/173/180
f 41/39/181 53/33/182 75/36/183 79/40/184
f 43/37/185 64/175/186 74/178/187 80/38/188
f 49/34/189 43/37/190 80/38/191 76/35/192
f 55/41/193 51/42/194 86/43/195 83/44/196
f 59/181/197 61/182/198 87/183/199 84/184/200
f 62/185/201 60/186/202 82/187/203 90/188/204
f 52/49/205 56/50/206 92/51/207 91/52/208
f 48/53/209 62/185/210 90/188/211 93/54/212
f 56/50/213 48/53/214 93/54/215 92/51/216
f 60/186/217 47/47/218 94/48/219 82/187/220
f 47/47/221 55/41/222 83/44/223 94/48/224
f 51/42/225 45/189/226 95/190/227 86/43/228
f 45/45/229 59/181/230 84/184/231 95/46/232
f 61/182/233 46/55/234 96/56/235 87/183/236
f 46/55/237 52/49/238 91/52/239 96/56/240
f 85/143/241 88/148/242 89/140/243 81/137/244
