# This file uses centimeters as units for non-parametric coordinates.

mtllib projectile_sweet.mtl
g default
v -0.628523 -0.019607 0.042107
v -0.330838 -0.171308 0.357393
v 0.000000 -0.190261 0.452844
v 0.330838 -0.171308 0.357393
v 0.628523 -0.019607 0.042107
v -0.628523 0.019607 0.042107
v -0.330838 0.171308 0.357393
v 0.000000 0.190261 0.452844
v 0.330838 0.171308 0.357393
v 0.628523 0.019607 0.042107
v -0.500799 0.157633 0.095242
v -0.330838 0.274585 0.226422
v 0.000000 0.304964 0.226422
v 0.330838 0.274585 0.226422
v 0.500799 0.157633 0.095242
v -0.500799 0.155962 0.000000
v -0.330838 0.289938 0.000000
v 0.000000 0.322016 0.000000
v 0.330838 0.289938 0.000000
v 0.500799 0.155962 0.000000
v -0.500799 0.157633 -0.095242
v -0.330838 0.274585 -0.226422
v 0.000000 0.304964 -0.226422
v 0.330838 0.274585 -0.226422
v 0.500799 0.157633 -0.095242
v -0.628523 0.019607 -0.042107
v -0.330838 0.171308 -0.357393
v 0.000000 0.190261 -0.452844
v 0.330838 0.171308 -0.357393
v 0.628523 0.019607 -0.042107
v -0.628523 -0.019607 -0.042107
v -0.330838 -0.171308 -0.357393
v 0.000000 -0.190261 -0.452844
v 0.330838 -0.171308 -0.357393
v 0.628523 -0.019607 -0.042107
v -0.500799 -0.157633 -0.095242
v -0.330838 -0.274585 -0.226422
v 0.000000 -0.304964 -0.226422
v 0.330838 -0.274585 -0.226422
v 0.500799 -0.157633 -0.095242
v -0.500799 -0.155962 0.000000
v -0.330838 -0.289938 0.000000
v 0.000000 -0.322016 0.000000
v 0.330838 -0.289938 0.000000
v 0.500799 -0.155962 0.000000
v -0.500799 -0.157633 0.095242
v -0.330838 -0.274585 0.226422
v 0.000000 -0.304964 0.226422
v 0.330838 -0.274585 0.226422
v 0.500799 -0.157633 0.095242
v 0.628523 0.019607 0.018773
v 0.628523 0.019607 0.000000
v 0.628523 0.019607 -0.018773
v 0.628523 -0.019607 -0.018773
v 0.628523 -0.019607 0.000000
v 0.628523 -0.019607 0.018773
v -0.628523 0.019607 0.018773
v -0.628523 0.019607 0.000000
v -0.628523 0.019607 -0.018773
v -0.628523 -0.019607 -0.018773
v -0.628523 -0.019607 0.000000
v -0.628523 -0.019607 0.018773
v -0.875379 -0.154078 -0.159538
v -0.875379 0.154078 -0.159538
v -0.971425 0.154078 -0.357837
v -0.971425 -0.154078 -0.357837
v -0.971425 -0.154078 0.000000
v -0.971425 0.154078 0.000000
v -0.875379 -0.154078 0.159538
v -0.875379 0.154078 0.159538
v -0.971425 -0.154078 0.357837
v -0.971425 0.154078 0.357837
v 0.971425 -0.154078 -0.357837
v 0.875379 -0.154078 -0.159538
v 0.971425 0.154078 -0.357837
v 0.875379 0.154078 -0.159538
v 0.971425 -0.154078 0.000000
v 0.971425 0.154078 0.000000
v 0.875379 -0.154078 0.159538
v 0.875379 0.154078 0.159538
v 0.971425 -0.154078 0.357837
v 0.971425 0.154078 0.357837
v -0.540995 0.064211 -0.134810
v -0.540995 -0.064211 -0.134810
v -0.534379 -0.067582 0.141817
v -0.534379 0.067582 0.141817
v 0.543164 -0.063106 0.132513
v 0.543164 0.063106 0.132513
v 0.543069 -0.063154 -0.132613
v 0.543069 0.063154 -0.132613
vt 0.948311 0.869192
vt 0.377089 0.211851
vt 0.366857 0.323684
vt 0.378708 0.426958
vt 0.324223 0.869334
vt 0.219426 0.627803
vt 0.177047 0.211851
vt 0.178600 0.323684
vt 0.178333 0.426958
vt 0.253329 0.627803
vt 0.111637 0.151986
vt 0.108087 0.211851
vt 0.108087 0.323684
vt 0.108087 0.426958
vt 0.112633 0.496204
vt 0.967992 0.127680
vt 0.967992 0.211851
vt 0.967992 0.323684
vt 0.967992 0.426958
vt 0.038415 0.511031
vt 0.902753 0.142447
vt 0.902051 0.211851
vt 0.902051 0.323684
vt 0.902051 0.426958
vt 0.903043 0.486639
vt 0.323187 0.887353
vt 0.836891 0.211851
vt 0.836439 0.323684
vt 0.837816 0.426958
vt 0.948112 0.887495
vt 0.217075 0.627802
vt 0.636443 0.211851
vt 0.645356 0.323684
vt 0.637847 0.426958
vt 0.253460 0.627802
vt 0.538847 0.159762
vt 0.573585 0.211851
vt 0.573585 0.323684
vt 0.573585 0.426958
vt 0.540022 0.478208
vt 0.506919 0.157968
vt 0.506830 0.211851
vt 0.507517 0.323684
vt 0.508193 0.426958
vt 0.508129 0.479811
vt 0.474953 0.159446
vt 0.441422 0.211851
vt 0.441422 0.323684
vt 0.441422 0.426958
vt 0.476256 0.478085
vt 0.243374 0.627803
vt 0.235362 0.627803
vt 0.227350 0.627803
vt 0.243433 0.627803
vt 0.235363 0.627803
vt 0.227293 0.627803
vt 0.229381 0.627803
vt 0.237393 0.627803
vt 0.245405 0.627803
vt 0.227102 0.627803
vt 0.235172 0.627803
vt 0.243241 0.627803
vt 0.568520 0.949632
vt 0.479671 0.949632
vt 0.071997 0.790000
vt 0.162687 0.745452
vt 0.634861 0.949632
vt 0.235172 0.790000
vt 0.702978 0.949632
vt 0.307656 0.745452
vt 0.791827 0.806914
vt 0.075387 0.790000
vt 0.703729 0.807056
vt 0.792976 0.807056
vt 0.073356 0.790000
vt 0.163396 0.745452
vt 0.636167 0.807056
vt 0.235362 0.790000
vt 0.568606 0.807056
vt 0.307327 0.745452
vt 0.479358 0.807056
vt 0.479358 0.949773
vt 0.501227 0.074837
vt 0.286310 0.094859
vt 0.507512 0.074865
vt 0.513795 0.074906
vt 0.521614 0.075184
vt 0.877693 0.058492
vt 0.742267 0.090046
vt 0.967992 0.055476
vt 0.136937 0.068171
vt 0.143058 0.071953
vt 0.501525 0.563233
vt 0.295419 0.547486
vt 0.507807 0.563266
vt 0.514091 0.563288
vt 0.521907 0.563085
vt 0.877470 0.570469
vt 0.750589 0.543007
vt 0.038415 0.583154
vt 0.137885 0.580125
vt 0.144004 0.576342
vt 0.769570 0.126698
vt 0.556263 0.109265
vt 0.314508 0.134101
vt 0.153392 0.119277
vt 0.318795 0.510507
vt 0.153365 0.533459
vt 0.702834 0.507785
vt 0.862160 0.523696
vt 0.702978 0.806914
vt 0.398346 0.790000
vt 0.791827 0.949632
vt 0.165427 0.745452
vt 0.948311 0.887353
vt 0.253268 0.627802
vt 0.634861 0.806914
vt 0.237393 0.790000
vt 0.568520 0.806914
vt 0.309358 0.745452
vt 0.479671 0.806914
vt 0.323187 0.869192
vt 0.399399 0.790000
vt 0.255360 0.627803
vt 0.397368 0.790000
vt 0.568605 0.949773
vt 0.324223 0.887495
vt 0.162879 0.745452
vt 0.072189 0.790000
vt 0.217266 0.627803
vt 0.636167 0.949773
vt 0.235363 0.790000
vt 0.703729 0.949773
vt 0.307847 0.745452
vt 0.792976 0.949773
vt 0.217395 0.627803
vt 0.398537 0.790000
vt 0.948112 0.869334
vt 0.775157 0.505868
vt 0.871367 0.566663
vt 0.556071 0.530001
vt 0.728339 0.543463
vt 0.246483 0.512605
vt 0.273170 0.548294
vt 0.459849 0.529726
vt 0.493706 0.562968
vt 0.237053 0.136338
vt 0.455523 0.111589
vt 0.264059 0.095359
vt 0.493410 0.075031
vt 0.695963 0.128678
vt 0.861856 0.106212
vt 0.720016 0.090810
vt 0.871565 0.062259
vt 0.038415 0.065145
vt 0.038415 0.137147
vt 0.967992 0.573517
vt 0.967992 0.501568
vt 0.038415 0.426958
vt 0.038415 0.323684
vt 0.038415 0.211851
vn -0.727112 0.000000 0.686519
vn -0.727112 0.000000 0.686519
vn -0.727111 0.000000 0.686520
vn -0.727111 0.000000 0.686520
vn 0.000000 0.000000 1.000000
vn 0.000000 0.000000 1.000000
vn -0.425538 0.000000 0.904941
vn -0.425538 0.000000 0.904941
vn 0.427950 0.000000 0.903803
vn 0.427950 0.000000 0.903803
vn 0.727112 0.000000 0.686519
vn 0.727112 0.000000 0.686519
vn -0.735103 0.506944 0.450146
vn -0.725897 0.525987 0.443184
vn -0.687315 0.680954 0.252785
vn -0.308960 0.796900 0.519128
vn 0.000000 0.853736 0.520706
vn 0.000000 0.956523 0.291658
vn -0.305042 0.899373 0.313173
vn 0.311502 0.795907 0.519133
vn 0.306948 0.898460 0.313931
vn 0.726155 0.525466 0.443379
vn 0.688988 0.677059 0.258625
vn -0.257872 0.966179 0.000000
vn -0.602350 0.798232 0.000000
vn 0.000000 1.000000 0.000000
vn 0.257872 0.966179 0.000000
vn 0.602350 0.798232 0.000000
vn -0.306479 0.898685 -0.313745
vn -0.688579 0.678017 -0.257200
vn -0.000000 0.956523 -0.291658
vn 0.306928 0.898470 -0.313923
vn 0.688970 0.677101 -0.258563
vn -0.726095 0.525588 -0.443333
vn -0.735103 0.506945 -0.450145
vn -0.000000 0.853736 -0.520706
vn -0.310877 0.796152 -0.519132
vn 0.311475 0.795918 -0.519133
vn 0.726153 0.525471 -0.443377
vn 0.735103 0.506945 -0.450146
vn -0.727111 0.000000 -0.686520
vn -0.727111 0.000000 -0.686520
vn -0.727112 0.000000 -0.686519
vn -0.727112 0.000000 -0.686519
vn 0.000000 0.000000 -1.000000
vn 0.000000 0.000000 -1.000000
vn -0.427373 0.000000 -0.904076
vn -0.427373 0.000000 -0.904076
vn 0.427925 0.000000 -0.903814
vn 0.427925 0.000000 -0.903814
vn 0.727112 0.000000 -0.686519
vn 0.727112 0.000000 -0.686519
vn 0.727112 0.000000 -0.686519
vn 0.727112 0.000000 -0.686519
vn -0.735103 -0.506945 -0.450145
vn -0.726095 -0.525587 -0.443333
vn -0.688579 -0.678017 -0.257200
vn -0.310877 -0.796152 -0.519132
vn 0.000000 -0.853736 -0.520706
vn 0.000000 -0.956523 -0.291658
vn -0.306479 -0.898685 -0.313745
vn 0.311475 -0.795918 -0.519133
vn 0.306928 -0.898470 -0.313923
vn 0.688970 -0.677101 -0.258563
vn 0.726153 -0.525471 -0.443377
vn 0.735103 -0.506945 -0.450146
vn -0.257872 -0.966179 0.000000
vn -0.602350 -0.798232 0.000000
vn 0.000000 -1.000000 0.000000
vn 0.257872 -0.966179 0.000000
vn 0.602350 -0.798232 0.000000
vn -0.305042 -0.899373 0.313173
vn -0.687315 -0.680954 0.252785
vn -0.000000 -0.956523 0.291658
vn 0.306948 -0.898460 0.313931
vn 0.688988 -0.677059 0.258625
vn -0.725897 -0.525987 0.443184
vn -0.735102 -0.506944 0.450146
vn -0.000000 -0.853736 0.520706
vn -0.308960 -0.796900 0.519128
vn 0.311502 -0.795907 0.519133
vn 0.726155 -0.525466 0.443379
vn 0.730871 0.682458 0.008900
vn 0.733969 0.679183 -0.000003
vn 0.730547 0.682792 0.009817
vn 0.730516 0.682895 0.000000
vn 0.730516 0.682895 0.000000
vn 0.730871 0.682458 -0.008900
vn 0.730547 0.682792 -0.009818
vn 0.733969 0.679183 0.000001
vn -1.000000 0.000000 -0.000000
vn -1.000000 0.000000 -0.000000
vn -0.899989 0.000000 0.435912
vn -0.899989 0.000000 0.435912
vn -1.000000 0.000000 0.000000
vn -1.000000 0.000000 0.000000
vn -1.000000 0.000000 0.000000
vn -1.000000 0.000000 0.000000
vn -0.899989 0.000000 -0.435912
vn -0.899989 0.000000 -0.435912
vn 0.730871 -0.682458 -0.008900
vn 0.733969 -0.679183 0.000001
vn 0.730547 -0.682792 -0.009818
vn 0.730516 -0.682895 0.000000
vn 0.730516 -0.682895 0.000000
vn 0.730871 -0.682458 0.008900
vn 0.730547 -0.682792 0.009817
vn 0.733969 -0.679183 -0.000003
vn 1.000000 -0.000000 -0.000000
vn 0.899989 -0.000000 0.435912
vn 0.899989 -0.000000 0.435912
vn 1.000000 -0.000000 -0.000000
vn 1.000000 0.000000 0.000000
vn 1.000000 0.000000 0.000000
vn 1.000000 0.000000 0.000000
vn 1.000000 0.000000 0.000000
vn 0.899989 0.000000 -0.435912
vn 0.899989 0.000000 -0.435912
vn -0.730871 0.682458 -0.008900
vn -0.733969 0.679183 0.000001
vn -0.730547 0.682792 -0.009818
vn -0.730516 0.682895 0.000000
vn -0.730516 0.682895 0.000000
vn -0.730871 0.682458 0.008900
vn -0.730547 0.682792 0.009818
vn -0.733969 0.679183 -0.000001
vn -0.730871 -0.682458 0.008900
vn -0.733969 -0.679183 -0.000001
vn -0.730547 -0.682792 0.009818
vn -0.730516 -0.682895 0.000000
vn -0.730516 -0.682895 0.000000
vn -0.730871 -0.682458 -0.008900
vn -0.730547 -0.682792 -0.009818
vn -0.733969 -0.679183 0.000001
vn 0.549522 0.800822 -0.238141
vn 0.549522 0.800822 -0.238141
vn 0.549522 0.800822 -0.238141
vn 0.549522 0.800822 -0.238141
vn 0.677358 0.000000 -0.735654
vn 0.677358 0.000000 -0.735654
vn 0.677358 0.000000 -0.735654
vn 0.677358 0.000000 -0.735654
vn 0.549521 -0.800822 -0.238141
vn 0.549521 -0.800822 -0.238141
vn 0.549522 -0.800822 -0.238141
vn 0.549521 -0.800822 -0.238141
vn 0.367240 0.908848 0.197812
vn 0.367240 0.908848 0.197812
vn 0.367240 0.908848 0.197812
vn 0.367240 0.908848 0.197812
vn 0.367240 -0.908848 0.197812
vn 0.367240 -0.908848 0.197812
vn 0.367240 -0.908848 0.197812
vn 0.367240 -0.908848 0.197812
vn 0.367240 0.908848 -0.197812
vn 0.367240 0.908848 -0.197812
vn 0.367240 0.908848 -0.197812
vn 0.367240 0.908848 -0.197812
vn 0.367240 -0.908848 -0.197812
vn 0.367240 -0.908848 -0.197812
vn 0.367240 -0.908848 -0.197812
vn 0.367240 -0.908848 -0.197812
vn 0.677358 0.000000 0.735654
vn 0.677358 0.000000 0.735654
vn 0.677358 0.000000 0.735654
vn 0.677358 0.000000 0.735654
vn 0.549521 0.800822 0.238141
vn 0.549521 0.800822 0.238141
vn 0.549521 0.800822 0.238141
vn 0.549521 0.800822 0.238141
vn 0.549521 -0.800822 0.238141
vn 0.549521 -0.800822 0.238141
vn 0.549521 -0.800822 0.238141
vn 0.549521 -0.800822 0.238141
vn -0.549522 -0.800822 -0.238140
vn -0.549522 -0.800822 -0.238140
vn -0.549522 -0.800822 -0.238140
vn -0.549522 -0.800822 -0.238140
vn -0.677358 0.000000 -0.735654
vn -0.677358 0.000000 -0.735654
vn -0.677358 0.000000 -0.735654
vn -0.677358 0.000000 -0.735654
vn -0.549522 0.800821 -0.238141
vn -0.549522 0.800821 -0.238140
vn -0.549522 0.800821 -0.238140
vn -0.549522 0.800821 -0.238140
vn -0.367240 -0.908848 0.197812
vn -0.367240 -0.908848 0.197812
vn -0.367240 -0.908848 0.197812
vn -0.367240 -0.908848 0.197812
vn -0.367240 0.908848 0.197812
vn -0.367240 0.908848 0.197812
vn -0.367240 0.908848 0.197812
vn -0.367240 0.908848 0.197812
vn -0.367240 -0.908848 -0.197812
vn -0.367240 -0.908848 -0.197812
vn -0.367240 -0.908848 -0.197812
vn -0.367240 -0.908848 -0.197812
vn -0.367240 0.908848 -0.197812
vn -0.367240 0.908848 -0.197812
vn -0.367240 0.908848 -0.197812
vn -0.367240 0.908848 -0.197812
vn -0.549521 -0.800822 0.238141
vn -0.549521 -0.800822 0.238141
vn -0.549522 -0.800822 0.238141
vn -0.549521 -0.800822 0.238141
vn -0.549522 0.800822 0.238141
vn -0.549522 0.800822 0.238141
vn -0.549522 0.800822 0.238141
vn -0.549522 0.800822 0.238141
vn -0.677358 0.000000 0.735654
vn -0.677358 0.000000 0.735654
vn -0.677358 0.000000 0.735654
vn -0.677358 0.000000 0.735654
vn 0.735102 -0.506945 0.450146
vn 0.727112 0.000000 0.686519
vn 0.727112 0.000000 0.686519
vn 0.735102 0.506945 0.450146
s 1
g sweet
usemtl lambert5SG
f 85/105/1 86/147/2 6/149/3 1/84/4
f 3/3/5 8/8/6 7/7/7 2/2/8
f 4/4/9 9/9/10 8/8/6 3/3/5
f 87/107/11 88/143/12 9/9/10 4/4/9
s 3
f 6/92/13 86/106/14 11/11/15
f 7/7/16 8/8/17 13/13/18 12/12/19
f 8/8/17 9/9/20 14/14/21 13/13/18
f 9/9/20 88/108/22 15/15/23 14/14/21
f 11/11/15 12/12/19 17/161/24 16/156/25
f 12/12/19 13/13/18 18/160/26 17/161/24
f 13/13/18 14/14/21 19/159/27 18/160/26
f 14/14/21 15/15/23 20/20/28 19/159/27
f 16/16/25 17/17/24 22/22/29 21/21/30
f 17/17/24 18/18/26 23/23/31 22/22/29
f 18/18/26 19/19/27 24/24/32 23/23/31
f 19/19/27 20/158/28 25/25/33 24/24/32
f 21/21/30 83/152/34 26/154/35
f 22/22/29 23/23/31 28/28/36 27/27/37
f 23/23/31 24/24/32 29/29/38 28/28/36
f 90/110/39 25/25/33 30/140/40
s 5
f 83/103/41 84/151/42 31/153/43 26/89/44
f 28/28/45 33/33/46 32/32/47 27/27/48
f 29/29/49 34/34/50 33/33/46 28/28/45
f 30/99/51 35/142/52 89/109/53 90/139/54
s 7
f 31/87/55 84/104/56 36/36/57
f 32/32/58 33/33/59 38/38/60 37/37/61
f 33/33/59 34/34/62 39/39/63 38/38/60
f 40/40/64 89/141/65 35/97/66
f 36/36/57 37/37/61 42/42/67 41/41/68
f 37/37/61 38/38/60 43/43/69 42/42/67
f 38/38/60 39/39/63 44/44/70 43/43/69
f 39/39/63 40/40/64 45/45/71 44/44/70
f 41/41/68 42/42/67 47/47/72 46/46/73
f 42/42/67 43/43/69 48/48/74 47/47/72
f 43/43/69 44/44/70 49/49/75 48/48/74
f 44/44/70 45/45/71 50/50/76 49/49/75
f 46/46/73 85/148/77 1/150/78
f 47/47/72 48/48/74 3/3/79 2/2/80
f 48/48/74 49/49/75 4/4/81 3/3/79
f 49/49/75 50/50/76 87/145/82 4/4/81
s 9
f 53/98/83 30/140/84 25/25/85
f 52/157/86 53/98/83 25/25/85 20/158/87
f 51/101/88 52/100/86 20/20/87 15/15/89
f 10/102/90 51/101/88 15/15/89
s 10
f 63/119/91 64/63/92 65/64/93 66/121/94
f 67/117/95 68/67/96 64/63/92 63/119/91
f 69/111/97 70/69/98 68/67/96 67/117/95
f 71/71/99 72/113/100 70/69/98 69/111/97
s 11
f 56/93/101 5/146/102 50/50/103
f 55/95/104 56/93/101 50/50/103 45/45/105
f 54/96/106 55/95/104 45/45/105 40/40/107
f 35/97/108 54/96/106 40/40/107
s 12
f 74/73/109 73/74/110 75/135/111 76/133/112
f 78/131/113 77/77/114 74/73/109 76/133/112
f 79/79/115 77/77/114 78/131/113 80/126/116
f 81/81/117 79/79/115 80/126/116 82/82/118
s 13
f 57/91/119 6/92/120 11/11/121
f 58/155/122 57/91/119 11/11/121 16/156/123
f 59/88/124 58/90/122 16/16/123 21/21/125
f 26/154/126 59/88/124 21/21/125
s 14
f 60/86/127 31/87/128 36/36/129
f 61/85/130 60/86/127 36/36/129 41/41/131
f 62/83/132 61/85/130 41/41/131 46/46/133
f 1/150/134 62/83/132 46/46/133
s off
f 59/59/135 26/124/136 65/123/137 64/120/138
f 26/26/139 31/122/140 66/121/141 65/64/142
f 31/31/143 60/60/144 63/66/145 66/65/146
f 58/58/147 59/59/148 64/120/149 68/118/150
f 60/60/151 61/61/152 67/68/153 63/66/154
f 57/57/155 58/58/156 68/118/157 70/114/158
f 61/61/159 62/62/160 69/70/161 67/68/162
f 1/1/163 6/115/164 72/113/165 71/71/166
f 6/6/167 57/57/168 70/114/169 72/72/170
f 62/62/171 1/116/172 71/112/173 69/70/174
f 54/54/175 35/35/176 73/137/177 74/134/178
f 35/138/179 30/30/180 75/135/181 73/74/182
f 30/136/183 53/53/184 76/76/185 75/75/186
f 55/55/187 54/54/188 74/134/189 77/132/190
f 53/53/191 52/52/192 78/78/193 76/76/194
f 56/56/195 55/55/196 77/132/197 79/128/198
f 52/52/199 51/51/200 80/80/201 78/78/202
f 5/130/203 56/56/204 79/128/205 81/129/206
f 51/51/207 10/10/208 82/125/209 80/80/210
f 10/127/211 5/5/212 81/81/213 82/82/214
s 3
f 21/21/30 22/22/29 27/27/37 83/152/34
s 5
f 27/27/48 32/32/47 84/151/42 83/103/41
s 7
f 36/36/57 84/104/56 32/32/58 37/37/61
f 46/46/73 47/47/72 2/2/80 85/148/77
s 1
f 2/2/8 7/7/7 86/147/2 85/105/1
s 3
f 11/11/15 86/106/14 7/7/16 12/12/19
s 7
f 87/145/82 50/50/76 5/146/215
s 1
f 5/94/216 10/144/217 88/143/12 87/107/11
s 3
f 15/15/23 88/108/22 10/102/218
s 7
f 34/34/62 89/141/65 40/40/64 39/39/63
s 5
f 90/139/54 89/109/53 34/34/50 29/29/49
s 3
f 24/24/32 25/25/33 90/110/39 29/29/38
