# This file uses centimeters as units for non-parametric coordinates.

mtllib projectile_ball.mtl
g default
v 0.270598 -0.923880 -0.270598
v 0.000000 -0.923880 -0.382683
v -0.270598 -0.923880 -0.270598
v -0.382683 -0.923880 0.000000
v -0.270598 -0.923880 0.270598
v 0.000000 -0.923880 0.382683
v 0.270598 -0.923880 0.270598
v 0.382683 -0.923880 0.000000
v 0.500000 -0.707107 -0.500000
v 0.000000 -0.707107 -0.707107
v -0.500000 -0.707107 -0.500000
v -0.707107 -0.707107 0.000000
v -0.500000 -0.707107 0.500000
v 0.000000 -0.707107 0.707107
v 0.500000 -0.707107 0.500000
v 0.707107 -0.707107 0.000000
v 0.653281 -0.382683 -0.653281
v 0.000000 -0.382683 -0.923879
v -0.653281 -0.382683 -0.653281
v -0.923879 -0.382683 0.000000
v -0.653281 -0.382683 0.653281
v 0.000000 -0.382683 0.923879
v 0.653281 -0.382683 0.653281
v 0.923880 -0.382683 0.000000
v 0.707107 0.000000 -0.707107
v 0.000000 0.000000 -1.000000
v -0.707107 0.000000 -0.707107
v -1.000000 0.000000 0.000000
v -0.707107 0.000000 0.707107
v 0.000000 0.000000 1.000000
v 0.707107 0.000000 0.707107
v 1.000000 0.000000 0.000000
v 0.653281 0.382683 -0.653281
v 0.000000 0.382683 -0.923879
v -0.653281 0.382683 -0.653281
v -0.923879 0.382683 0.000000
v -0.653281 0.382683 0.653281
v 0.000000 0.382683 0.923879
v 0.653281 0.382683 0.653281
v 0.923880 0.382683 0.000000
v 0.500000 0.707107 -0.500000
v 0.000000 0.707107 -0.707107
v -0.500000 0.707107 -0.500000
v -0.707107 0.707107 0.000000
v -0.500000 0.707107 0.500000
v 0.000000 0.707107 0.707107
v 0.500000 0.707107 0.500000
v 0.707107 0.707107 0.000000
v 0.270598 0.923880 -0.270598
v 0.000000 0.923880 -0.382683
v -0.270598 0.923880 -0.270598
v -0.382683 0.923880 0.000000
v -0.270598 0.923880 0.270598
v 0.000000 0.923880 0.382683
v 0.270598 0.923880 0.270598
v 0.382683 0.923880 0.000000
v 0.000000 -1.000000 0.000000
v 0.000000 1.000000 0.000000
vt 0.442523 0.103178
vt 0.070368 0.783734
vt 0.116581 0.892428
vt 0.226024 0.936612
vt 0.334615 0.890522
vt 0.378830 0.781186
vt 0.332814 0.672595
vt 0.223477 0.628305
vt 0.114779 0.674291
vt 0.405381 0.202489
vt 0.738756 0.205923
vt 0.401560 0.205772
vt 0.738828 0.205620
vt 0.402217 0.205559
vt 0.739610 0.205603
vt 0.400010 0.205896
vt 0.741596 0.206319
vt 0.888490 0.204912
vt 0.380362 0.305732
vt 0.717559 0.308804
vt 0.379581 0.308590
vt 0.716101 0.308587
vt 0.380775 0.308904
vt 0.717593 0.308717
vt 0.378153 0.308890
vt 0.719482 0.309193
vt 0.911037 0.308585
vt 0.371175 0.411750
vt 0.710128 0.413306
vt 0.371703 0.413215
vt 0.707941 0.414021
vt 0.373440 0.413680
vt 0.709972 0.413452
vt 0.370552 0.413458
vt 0.711550 0.414134
vt 0.918861 0.414474
vt 0.378490 0.517898
vt 0.717776 0.518179
vt 0.379644 0.518142
vt 0.715818 0.519501
vt 0.381233 0.518026
vt 0.717827 0.518225
vt 0.378243 0.518035
vt 0.718811 0.518977
vt 0.910231 0.520707
vt 0.401628 0.621643
vt 0.739258 0.621080
vt 0.402194 0.620622
vt 0.738863 0.622767
vt 0.403196 0.620731
vt 0.739866 0.620951
vt 0.399989 0.620597
vt 0.739756 0.621697
vt 0.886087 0.624362
vt 0.221824 0.627670
vt 0.331941 0.671396
vt 0.378888 0.780086
vt 0.335283 0.890097
vt 0.226701 0.937073
vt 0.116692 0.893542
vt 0.069641 0.784960
vt 0.113139 0.674845
vt 0.849948 0.723754
vt 0.224755 0.782458
vt 0.224265 0.782528
vt 0.512358 0.721272
vt 0.852632 0.721434
vt 0.515494 0.721362
vt 0.852504 0.721876
vt 0.515289 0.719979
vt 0.851409 0.722029
vt 0.516095 0.720942
vt 0.774360 0.105502
vt 0.433824 0.105607
vt 0.773479 0.105296
vt 0.436055 0.105150
vt 0.772625 0.105088
vt 0.435336 0.105214
vt 0.772743 0.105666
vt 0.546049 0.621090
vt 0.886096 0.621032
vt 0.549243 0.621222
vt 0.885107 0.621936
vt 0.548048 0.620113
vt 0.885647 0.622034
vt 0.548202 0.620708
vt 0.547344 0.205891
vt 0.886972 0.205582
vt 0.549568 0.205500
vt 0.886168 0.205542
vt 0.548870 0.205679
vt 0.885950 0.206007
vt 0.551713 0.205951
vt 0.770823 0.721922
vt 0.436682 0.721985
vt 0.433124 0.721050
vt 0.773333 0.721434
vt 0.436065 0.721042
vt 0.773416 0.722632
vt 0.436034 0.720284
vt 0.772113 0.721425
vt 0.513354 0.105559
vt 0.853899 0.104765
vt 0.853014 0.105269
vt 0.515633 0.105113
vt 0.852262 0.105045
vt 0.514979 0.105167
vt 0.852219 0.105749
vt 0.521669 0.105316
vt 0.576698 0.413834
vt 0.568466 0.518575
vt 0.916316 0.413610
vt 0.908273 0.518377
vt 0.579770 0.413648
vt 0.571855 0.518357
vt 0.914999 0.414011
vt 0.907030 0.518920
vt 0.577912 0.413191
vt 0.569972 0.517732
vt 0.916753 0.413576
vt 0.908613 0.519113
vt 0.578240 0.413443
vt 0.570038 0.517926
vt 0.569267 0.309064
vt 0.908855 0.308832
vt 0.571908 0.308618
vt 0.907599 0.309048
vt 0.570421 0.308696
vt 0.908675 0.308426
vt 0.571722 0.308888
vn 0.224263 -0.810291 -0.541419
vn 0.224263 -0.810291 -0.541419
vn 0.224263 -0.810291 -0.541419
vn 0.224263 -0.810291 -0.541419
vn -0.224263 -0.810291 -0.541419
vn -0.224263 -0.810291 -0.541419
vn -0.224263 -0.810291 -0.541419
vn -0.224263 -0.810291 -0.541419
vn -0.541419 -0.810291 -0.224263
vn -0.541419 -0.810291 -0.224263
vn -0.541419 -0.810291 -0.224263
vn -0.541419 -0.810291 -0.224263
vn -0.541419 -0.810291 0.224263
vn -0.541419 -0.810291 0.224263
vn -0.541419 -0.810291 0.224263
vn -0.541419 -0.810291 0.224263
vn -0.224263 -0.810291 0.541419
vn -0.224263 -0.810291 0.541419
vn -0.224263 -0.810291 0.541419
vn -0.224263 -0.810291 0.541419
vn 0.224263 -0.810291 0.541419
vn 0.224263 -0.810291 0.541419
vn 0.224263 -0.810291 0.541419
vn 0.224263 -0.810291 0.541419
vn 0.541419 -0.810291 0.224263
vn 0.541419 -0.810291 0.224263
vn 0.541419 -0.810291 0.224263
vn 0.541419 -0.810291 0.224263
vn 0.541419 -0.810291 -0.224263
vn 0.541419 -0.810291 -0.224263
vn 0.541419 -0.810291 -0.224263
vn 0.541419 -0.810291 -0.224263
vn 0.325634 -0.525289 -0.786151
vn 0.325634 -0.525289 -0.786151
vn 0.325634 -0.525289 -0.786151
vn 0.325634 -0.525289 -0.786151
vn -0.325634 -0.525289 -0.786151
vn -0.325634 -0.525289 -0.786151
vn -0.325634 -0.525289 -0.786151
vn -0.325634 -0.525289 -0.786151
vn -0.786151 -0.525289 -0.325634
vn -0.786151 -0.525289 -0.325634
vn -0.786151 -0.525289 -0.325634
vn -0.786151 -0.525289 -0.325634
vn -0.786151 -0.525289 0.325634
vn -0.786151 -0.525289 0.325634
vn -0.786151 -0.525289 0.325634
vn -0.786151 -0.525289 0.325634
vn -0.325634 -0.525289 0.786151
vn -0.325634 -0.525289 0.786151
vn -0.325634 -0.525289 0.786151
vn -0.325634 -0.525289 0.786151
vn 0.325634 -0.525289 0.786151
vn 0.325634 -0.525289 0.786151
vn 0.325634 -0.525289 0.786151
vn 0.325634 -0.525289 0.786151
vn 0.786151 -0.525289 0.325634
vn 0.786151 -0.525289 0.325635
vn 0.786151 -0.525289 0.325634
vn 0.786151 -0.525289 0.325634
vn 0.786151 -0.525289 -0.325635
vn 0.786151 -0.525289 -0.325635
vn 0.786151 -0.525289 -0.325635
vn 0.786151 -0.525289 -0.325635
vn 0.376381 -0.180744 -0.908663
vn 0.376381 -0.180744 -0.908663
vn 0.376381 -0.180744 -0.908663
vn 0.376381 -0.180744 -0.908663
vn -0.376381 -0.180744 -0.908663
vn -0.376381 -0.180744 -0.908663
vn -0.376381 -0.180744 -0.908663
vn -0.376381 -0.180744 -0.908663
vn -0.908663 -0.180744 -0.376381
vn -0.908663 -0.180744 -0.376381
vn -0.908663 -0.180744 -0.376381
vn -0.908663 -0.180744 -0.376381
vn -0.908663 -0.180744 0.376381
vn -0.908663 -0.180744 0.376381
vn -0.908663 -0.180744 0.376381
vn -0.908663 -0.180744 0.376381
vn -0.376381 -0.180744 0.908663
vn -0.376381 -0.180744 0.908663
vn -0.376381 -0.180744 0.908663
vn -0.376381 -0.180744 0.908663
vn 0.376381 -0.180744 0.908663
vn 0.376381 -0.180744 0.908663
vn 0.376381 -0.180744 0.908663
vn 0.376381 -0.180744 0.908663
vn 0.908663 -0.180745 0.376381
vn 0.908663 -0.180745 0.376381
vn 0.908663 -0.180745 0.376381
vn 0.908663 -0.180745 0.376381
vn 0.908663 -0.180744 -0.376381
vn 0.908663 -0.180744 -0.376381
vn 0.908663 -0.180744 -0.376381
vn 0.908663 -0.180744 -0.376381
vn 0.376381 0.180744 -0.908663
vn 0.376381 0.180744 -0.908663
vn 0.376381 0.180744 -0.908663
vn 0.376381 0.180744 -0.908663
vn -0.376381 0.180744 -0.908663
vn -0.376381 0.180744 -0.908663
vn -0.376381 0.180744 -0.908663
vn -0.376381 0.180744 -0.908663
vn -0.908663 0.180744 -0.376381
vn -0.908663 0.180744 -0.376381
vn -0.908663 0.180744 -0.376381
vn -0.908663 0.180744 -0.376381
vn -0.908663 0.180744 0.376381
vn -0.908663 0.180744 0.376381
vn -0.908663 0.180744 0.376381
vn -0.908663 0.180744 0.376381
vn -0.376381 0.180744 0.908663
vn -0.376381 0.180744 0.908663
vn -0.376381 0.180744 0.908663
vn -0.376381 0.180744 0.908663
vn 0.376381 0.180744 0.908663
vn 0.376381 0.180744 0.908663
vn 0.376381 0.180744 0.908663
vn 0.376381 0.180744 0.908663
vn 0.908663 0.180745 0.376381
vn 0.908663 0.180745 0.376381
vn 0.908663 0.180745 0.376381
vn 0.908663 0.180745 0.376381
vn 0.908663 0.180744 -0.376381
vn 0.908663 0.180744 -0.376381
vn 0.908663 0.180744 -0.376381
vn 0.908663 0.180744 -0.376381
vn 0.325634 0.525289 -0.786151
vn 0.325634 0.525289 -0.786151
vn 0.325635 0.525289 -0.786151
vn 0.325635 0.525289 -0.786151
vn -0.325634 0.525289 -0.786151
vn -0.325634 0.525289 -0.786151
vn -0.325635 0.525289 -0.786151
vn -0.325635 0.525289 -0.786151
vn -0.786151 0.525289 -0.325634
vn -0.786151 0.525289 -0.325634
vn -0.786151 0.525289 -0.325634
vn -0.786151 0.525289 -0.325634
vn -0.786151 0.525289 0.325634
vn -0.786151 0.525289 0.325634
vn -0.786151 0.525289 0.325634
vn -0.786151 0.525289 0.325634
vn -0.325634 0.525289 0.786151
vn -0.325634 0.525289 0.786151
vn -0.325634 0.525289 0.786151
vn -0.325634 0.525289 0.786151
vn 0.325634 0.525289 0.786151
vn 0.325634 0.525289 0.786151
vn 0.325634 0.525289 0.786151
vn 0.325634 0.525289 0.786151
vn 0.786151 0.525289 0.325634
vn 0.786151 0.525289 0.325634
vn 0.786151 0.525289 0.325635
vn 0.786151 0.525289 0.325634
vn 0.786151 0.525289 -0.325635
vn 0.786151 0.525289 -0.325635
vn 0.786151 0.525289 -0.325635
vn 0.786151 0.525289 -0.325635
vn 0.224263 0.810291 -0.541419
vn 0.224263 0.810291 -0.541419
vn 0.224263 0.810291 -0.541419
vn 0.224263 0.810291 -0.541419
vn -0.224263 0.810291 -0.541419
vn -0.224263 0.810291 -0.541419
vn -0.224263 0.810291 -0.541419
vn -0.224263 0.810291 -0.541419
vn -0.541419 0.810291 -0.224263
vn -0.541419 0.810291 -0.224263
vn -0.541419 0.810291 -0.224263
vn -0.541419 0.810291 -0.224263
vn -0.541419 0.810291 0.224263
vn -0.541419 0.810291 0.224263
vn -0.541419 0.810291 0.224263
vn -0.541419 0.810291 0.224263
vn -0.224263 0.810291 0.541419
vn -0.224263 0.810291 0.541419
vn -0.224263 0.810291 0.541419
vn -0.224263 0.810291 0.541419
vn 0.224263 0.810291 0.541419
vn 0.224263 0.810291 0.541419
vn 0.224263 0.810291 0.541419
vn 0.224263 0.810291 0.541419
vn 0.541419 0.810291 0.224263
vn 0.541419 0.810291 0.224263
vn 0.541419 0.810291 0.224263
vn 0.541419 0.810291 0.224263
vn 0.541419 0.810291 -0.224263
vn 0.541419 0.810291 -0.224263
vn 0.541419 0.810291 -0.224263
vn 0.541419 0.810291 -0.224263
vn 0.080547 -0.977599 -0.194457
vn 0.080547 -0.977599 -0.194457
vn 0.080547 -0.977599 -0.194456
vn -0.080547 -0.977599 -0.194457
vn -0.080547 -0.977599 -0.194457
vn -0.080547 -0.977599 -0.194456
vn -0.194457 -0.977599 -0.080546
vn -0.194457 -0.977599 -0.080546
vn -0.194457 -0.977599 -0.080546
vn -0.194457 -0.977599 0.080546
vn -0.194457 -0.977599 0.080546
vn -0.194457 -0.977599 0.080546
vn -0.080547 -0.977599 0.194457
vn -0.080547 -0.977599 0.194457
vn -0.080547 -0.977599 0.194457
vn 0.080547 -0.977599 0.194457
vn 0.080547 -0.977599 0.194457
vn 0.080547 -0.977599 0.194457
vn 0.194457 -0.977599 0.080546
vn 0.194457 -0.977599 0.080546
vn 0.194457 -0.977599 0.080546
vn 0.194457 -0.977599 -0.080546
vn 0.194457 -0.977599 -0.080546
vn 0.194457 -0.977599 -0.080546
vn 0.080547 0.977599 -0.194457
vn 0.080547 0.977599 -0.194457
vn 0.080547 0.977599 -0.194456
vn -0.080547 0.977599 -0.194457
vn -0.080547 0.977599 -0.194457
vn -0.080547 0.977599 -0.194456
vn -0.194457 0.977599 -0.080546
vn -0.194457 0.977599 -0.080546
vn -0.194457 0.977599 -0.080546
vn -0.194457 0.977599 0.080546
vn -0.194457 0.977599 0.080546
vn -0.194457 0.977599 0.080546
vn -0.080547 0.977599 0.194457
vn -0.080547 0.977599 0.194457
vn -0.080547 0.977599 0.194457
vn 0.080547 0.977599 0.194457
vn 0.080547 0.977599 0.194457
vn 0.080547 0.977599 0.194457
vn 0.194457 0.977599 0.080546
vn 0.194457 0.977599 0.080546
vn 0.194457 0.977599 0.080546
vn 0.194457 0.977599 -0.080546
vn 0.194457 0.977599 -0.080546
vn 0.194457 0.977599 -0.080546
s off
g ball
usemtl lambert2SG
f 1/1/1 2/109/2 10/93/3 9/10/4
f 2/79/5 3/108/6 11/92/7 10/11/8
f 3/78/9 4/107/10 12/91/11 11/12/12
f 4/77/13 5/106/14 13/90/15 12/13/16
f 5/76/17 6/105/18 14/89/19 13/14/20
f 6/75/21 7/104/22 15/88/23 14/15/24
f 7/74/25 8/102/26 16/87/27 15/16/28
f 8/73/29 1/103/30 9/18/31 16/17/32
f 9/10/33 10/93/34 18/130/35 17/19/36
f 10/11/37 11/92/38 19/129/39 18/20/40
f 11/12/41 12/91/42 20/128/43 19/21/44
f 12/13/45 13/90/46 21/127/47 20/22/48
f 13/14/49 14/89/50 22/126/51 21/23/52
f 14/15/53 15/88/54 23/125/55 22/24/56
f 15/16/57 16/87/58 24/124/59 23/25/60
f 16/17/61 9/18/62 17/27/63 24/26/64
f 17/19/65 18/130/66 26/122/67 25/28/68
f 18/20/69 19/129/70 27/120/71 26/29/72
f 19/21/73 20/128/74 28/118/75 27/30/76
f 20/22/77 21/127/78 29/116/79 28/31/80
f 21/23/81 22/126/82 30/114/83 29/32/84
f 22/24/85 23/125/86 31/112/87 30/33/88
f 23/25/89 24/124/90 32/110/91 31/34/92
f 24/26/93 17/27/94 25/36/95 32/35/96
f 25/28/97 26/122/98 34/123/99 33/37/100
f 26/29/101 27/120/102 35/121/103 34/38/104
f 27/30/105 28/118/106 36/119/107 35/39/108
f 28/31/109 29/116/110 37/117/111 36/40/112
f 29/32/113 30/114/114 38/115/115 37/41/116
f 30/33/117 31/112/118 39/113/119 38/42/120
f 31/34/121 32/110/122 40/111/123 39/43/124
f 32/35/125 25/36/126 33/45/127 40/44/128
f 33/37/129 34/123/130 42/86/131 41/46/132
f 34/38/133 35/121/134 43/85/135 42/47/136
f 35/39/137 36/119/138 44/84/139 43/48/140
f 36/40/141 37/117/142 45/83/143 44/49/144
f 37/41/145 38/115/146 46/82/147 45/50/148
f 38/42/149 39/113/150 47/81/151 46/51/152
f 39/43/153 40/111/154 48/80/155 47/52/156
f 40/44/157 33/45/158 41/54/159 48/53/160
f 41/46/161 42/86/162 50/72/163 49/95/164
f 42/47/165 43/85/166 51/71/167 50/101/168
f 43/48/169 44/84/170 52/70/171 51/100/172
f 44/49/173 45/83/174 53/69/175 52/99/176
f 45/50/177 46/82/178 54/68/179 53/98/180
f 46/51/181 47/81/182 55/67/183 54/97/184
f 47/52/185 48/80/186 56/66/187 55/96/188
f 48/53/189 41/54/190 49/63/191 56/94/192
f 2/2/193 1/9/194 57/64/195
f 3/3/196 2/2/197 57/64/198
f 4/4/199 3/3/200 57/64/201
f 5/5/202 4/4/203 57/64/204
f 6/6/205 5/5/206 57/64/207
f 7/7/208 6/6/209 57/64/210
f 8/8/211 7/7/212 57/64/213
f 1/9/214 8/8/215 57/64/216
f 49/55/217 50/56/218 58/65/219
f 50/56/220 51/57/221 58/65/222
f 51/57/223 52/58/224 58/65/225
f 52/58/226 53/59/227 58/65/228
f 53/59/229 54/60/230 58/65/231
f 54/60/232 55/61/233 58/65/234
f 55/61/235 56/62/236 58/65/237
f 56/62/238 49/55/239 58/65/240
