# This file uses centimeters as units for non-parametric coordinates.

mtllib projectile_pillow.mtl
g default
v -1.567488 -0.055498 2.342529
v -0.783744 -0.169907 2.134517
v 0.000000 -0.220981 2.205667
v 0.783744 -0.169907 2.134517
v 1.567488 -0.055498 2.342529
v -1.567488 0.055498 2.342529
v -0.783744 0.169907 2.134517
v 0.000000 0.220981 2.205667
v 0.783744 0.169907 2.134517
v 1.567488 0.055498 2.342529
v -1.567488 0.055498 -2.342529
v -0.783744 0.169907 -2.134517
v 0.000000 0.220981 -2.205667
v 0.783744 0.169907 -2.134517
v 1.567488 0.055498 -2.342529
v -1.567488 -0.055498 -2.342529
v -0.783744 -0.169907 -2.134517
v 0.000000 -0.220981 -2.205667
v 0.783744 -0.169907 -2.134517
v 1.567488 -0.055498 -2.342529
v -1.512640 0.179249 0.000000
v -0.818577 0.548769 0.013955
v 0.000000 0.713729 0.020861
v 0.818577 0.548769 0.013955
v 1.512640 0.179249 0.000000
v 1.512640 -0.179248 0.000000
v 0.818577 -0.548769 0.022280
v 0.000000 -0.713729 0.033301
v -0.818577 -0.548769 0.022280
v -1.512640 -0.179248 0.000000
v -1.480456 0.167684 1.171264
v -0.801161 0.513365 1.221884
v 0.000000 0.667682 1.285965
v 0.801161 0.513365 1.221884
v 1.480456 0.167684 1.171264
v 1.480456 -0.167684 1.171264
v 0.801161 -0.513365 1.184965
v 0.000000 -0.667682 1.230785
v -0.801161 -0.513365 1.184965
v -1.480456 -0.167684 1.171264
v 1.480456 -0.167684 -1.171264
v 0.801161 -0.513365 -1.150006
v 0.000000 -0.667682 -1.178534
v -0.801161 -0.513365 -1.150006
v -1.480456 -0.167684 -1.171264
v -1.480456 0.167684 -1.171264
v -0.801161 0.513365 -1.154504
v 0.000000 0.667682 -1.185256
v 0.801161 0.513365 -1.154504
v 1.480456 0.167684 -1.171264
vt 0.784330 0.899454
vt 0.339224 0.737972
vt 0.484788 0.728215
vt 0.630353 0.737972
vt 0.778196 0.759827
vt 0.681579 0.634498
vt 0.593096 0.623873
vt 0.491672 0.623873
vt 0.390246 0.623873
vt 0.178185 0.914822
vt 0.777598 0.781069
vt 0.593096 0.107757
vt 0.491664 0.107757
vt 0.390246 0.107757
vt 0.312603 0.089056
vt 0.319135 0.087767
vt 0.392903 0.106501
vt 0.488470 0.106501
vt 0.584052 0.106501
vt 0.190784 0.760015
vt 0.309243 0.635095
vt 0.392903 0.624310
vt 0.488478 0.624310
vt 0.584052 0.624310
vt 0.667712 0.635082
vt 0.784330 0.899823
vt 0.784330 0.914822
vt 0.178185 0.899454
vt 0.178185 0.914098
vt 0.481258 0.929662
vt 0.655849 0.360586
vt 0.593096 0.369056
vt 0.491667 0.368592
vt 0.390246 0.369062
vt 0.327483 0.360598
vt 0.481258 0.930764
vt 0.643665 0.360459
vt 0.481258 0.883882
vt 0.584052 0.369521
vt 0.488474 0.369277
vt 0.392903 0.369526
vt 0.481258 0.883889
vt 0.333279 0.360472
vt 0.631928 0.929662
vt 0.655849 0.504343
vt 0.593096 0.504343
vt 0.491669 0.504343
vt 0.390246 0.504343
vt 0.327483 0.504343
vt 0.330588 0.930764
vt 0.643665 0.500501
vt 0.330588 0.883882
vt 0.584052 0.500501
vt 0.488475 0.500501
vt 0.392903 0.500501
vt 0.631928 0.883889
vt 0.333279 0.500501
vt 0.643665 0.223988
vt 0.631928 0.883882
vt 0.584052 0.223988
vt 0.488473 0.223988
vt 0.392903 0.223988
vt 0.330588 0.883889
vt 0.333279 0.223988
vt 0.330588 0.929662
vt 0.655849 0.220734
vt 0.593096 0.220734
vt 0.491667 0.220734
vt 0.390246 0.220734
vt 0.327483 0.220734
vt 0.631928 0.930764
vt 0.178185 0.899823
vt 0.778196 0.781030
vt 0.191381 0.759827
vt 0.784330 0.914098
vt 0.338626 0.802771
vt 0.190784 0.781069
vt 0.484191 0.812459
vt 0.629756 0.802771
vt 0.670725 0.089044
vt 0.630353 0.802886
vt 0.301764 0.634511
vt 0.484788 0.812642
vt 0.339224 0.802886
vt 0.191381 0.781030
vt 0.338626 0.738313
vt 0.657805 0.087754
vt 0.484191 0.728625
vt 0.629756 0.738313
vt 0.777598 0.760015
vn 0.256527 0.000000 0.966537
vn 0.028628 0.000000 0.999590
vn 0.028628 0.000000 0.999590
vn 0.256527 0.000000 0.966537
vn 0.000000 0.000000 1.000000
vn 0.000000 0.000000 1.000000
vn -0.028628 0.000000 0.999590
vn -0.028628 0.000000 0.999590
vn -0.256527 0.000000 0.966537
vn -0.256527 0.000000 0.966537
vn -0.367892 0.923328 -0.110091
vn -0.271108 0.950884 -0.149399
vn -0.208608 0.938107 -0.276473
vn -0.267575 0.944345 -0.191355
vn 0.000000 0.980954 -0.194241
vn 0.000000 0.929644 -0.368460
vn 0.271108 0.950884 -0.149399
vn 0.208608 0.938107 -0.276473
vn 0.367892 0.923328 -0.110091
vn 0.267575 0.944345 -0.191355
vn 0.256527 0.000000 -0.966537
vn 0.028628 0.000000 -0.999590
vn 0.028628 0.000000 -0.999590
vn 0.256527 0.000000 -0.966537
vn 0.000000 0.000000 -1.000000
vn 0.000000 0.000000 -1.000000
vn -0.028628 0.000000 -0.999590
vn -0.028628 0.000000 -0.999590
vn -0.256527 0.000000 -0.966537
vn -0.256527 0.000000 -0.966537
vn -0.267103 -0.944547 -0.191014
vn -0.208002 -0.938508 -0.275567
vn -0.270808 -0.951046 -0.148910
vn -0.367198 -0.923592 -0.110197
vn 0.000000 -0.930348 -0.366677
vn -0.000000 -0.981180 -0.193098
vn 0.208002 -0.938508 -0.275567
vn 0.270808 -0.951046 -0.148910
vn 0.267103 -0.944547 -0.191014
vn 0.367198 -0.923592 -0.110197
vn 0.999943 0.000000 0.010711
vn 0.999943 0.000000 0.010711
vn 0.997251 0.000000 0.074102
vn 0.997251 0.000000 0.074102
vn -0.997251 0.000000 0.074102
vn -0.999943 0.000000 0.010711
vn -0.999943 0.000000 0.010711
vn -0.997251 0.000000 0.074102
vn -0.379390 0.919139 0.106048
vn -0.274875 0.949579 0.150808
vn -0.325790 0.945442 0.000055
vn -0.462146 0.886804 -0.000313
vn 0.000000 0.979521 0.201341
vn 0.000000 1.000000 0.000189
vn 0.274875 0.949579 0.150808
vn 0.325790 0.945442 0.000055
vn 0.379390 0.919139 0.106048
vn 0.462146 0.886804 -0.000313
vn 0.999943 0.000000 -0.010711
vn 0.999943 0.000000 -0.010711
vn 1.000000 0.000000 0.000000
vn 1.000000 0.000000 0.000000
vn 0.326384 -0.945237 0.000087
vn 0.461818 -0.886975 -0.000504
vn 0.372845 -0.921485 0.108870
vn 0.273030 -0.949999 0.151515
vn -0.000000 -1.000000 0.000301
vn -0.000000 -0.979800 0.199983
vn -0.326384 -0.945237 0.000087
vn -0.273030 -0.949999 0.151515
vn -0.461818 -0.886975 -0.000504
vn -0.372844 -0.921485 0.108871
vn -1.000000 0.000000 0.000000
vn -1.000000 0.000000 0.000000
vn -0.999943 0.000000 -0.010711
vn -0.999943 0.000000 -0.010711
vn -0.274826 0.941178 0.196607
vn -0.218155 0.931599 0.290744
vn 0.000000 0.917730 0.397205
vn 0.218155 0.931599 0.290744
vn 0.274826 0.941178 0.196607
vn 0.997251 0.000000 -0.074102
vn 0.997251 0.000000 -0.074102
vn 0.270808 -0.942945 0.193696
vn 0.212814 -0.935285 0.282759
vn -0.000000 -0.924588 0.380968
vn -0.212814 -0.935285 0.282759
vn -0.270808 -0.942945 0.193696
vn -0.997251 0.000000 -0.074102
vn -0.997251 0.000000 -0.074102
s 1
g pillow
usemtl lambert3SG
f 1/74/1 2/2/2 7/84/3 6/85/4
f 2/2/2 3/3/5 8/83/6 7/84/3
f 3/3/5 4/4/7 9/81/8 8/83/6
f 4/4/7 5/5/9 10/73/10 9/81/8
s 2
f 46/66/11 47/67/12 12/12/13 11/80/14
f 47/67/12 48/68/15 13/13/16 12/12/13
f 48/68/15 49/69/17 14/14/18 13/13/16
f 49/69/17 50/70/19 15/15/20 14/14/18
s 3
f 11/11/21 12/79/22 17/89/23 16/90/24
f 12/79/22 13/78/25 18/88/26 17/89/23
f 13/78/25 14/76/27 19/86/28 18/88/26
f 14/76/27 15/77/29 20/20/30 19/86/28
s 4
f 16/16/31 17/17/32 44/62/33 45/64/34
f 17/17/32 18/18/35 43/61/36 44/62/33
f 18/18/35 19/19/37 42/60/38 43/61/36
f 19/19/37 20/87/39 41/58/40 42/60/38
s 5
f 50/71/41 41/59/42 20/26/43 15/27/44
s 6
f 16/28/45 45/63/46 46/65/47 11/29/48
s 2
f 31/45/49 32/46/50 22/32/51 21/31/52
f 32/46/50 33/47/53 23/33/54 22/32/51
f 33/47/53 34/48/55 24/34/56 23/33/54
f 34/48/55 35/49/57 25/35/58 24/34/56
s 5
f 35/50/59 36/52/60 26/38/61 25/36/62
s 4
f 27/39/63 26/37/64 36/51/65 37/53/66
f 28/40/67 27/39/63 37/53/66 38/54/68
f 29/41/69 28/40/67 38/54/68 39/55/70
f 30/43/71 29/41/69 39/55/70 40/57/72
s 6
f 21/30/73 30/42/74 40/56/75 31/44/76
s 2
f 6/6/77 7/7/78 32/46/50 31/45/49
f 7/7/78 8/8/79 33/47/53 32/46/50
f 8/8/79 9/9/80 34/48/55 33/47/53
f 9/9/80 10/82/81 35/49/57 34/48/55
s 5
f 5/72/82 36/52/60 35/50/59 10/10/83
s 4
f 37/53/66 36/51/65 5/25/84 4/24/85
f 38/54/68 37/53/66 4/24/85 3/23/86
f 39/55/70 38/54/68 3/23/86 2/22/87
f 40/57/72 39/55/70 2/22/87 1/21/88
s 6
f 31/44/76 40/56/75 1/1/89 6/75/90
s 4
f 42/60/38 41/58/40 26/37/64 27/39/63
f 43/61/36 42/60/38 27/39/63 28/40/67
f 44/62/33 43/61/36 28/40/67 29/41/69
f 45/64/34 44/62/33 29/41/69 30/43/71
s 6
f 46/65/47 45/63/46 30/42/74 21/30/73
s 2
f 21/31/52 22/32/51 47/67/12 46/66/11
f 22/32/51 23/33/54 48/68/15 47/67/12
f 23/33/54 24/34/56 49/69/17 48/68/15
f 24/34/56 25/35/58 50/70/19 49/69/17
s 5
f 25/36/62 26/38/61 41/59/42 50/71/41
